# AST/ASF file generated using VICON BodyLanguage
# -----------------------------------------------
:version 1.10
:name VICON
:units
  mass 1.0
  length 0.45
  angle deg
:documentation
   .ast/.asf automatically generated from VICON data using
   VICON BodyBuilder and BodyLanguage model FoxedUp or BRILLIANT.MOD
:root
   order TX TY TZ RX RY RZ
   axis XYZ
   position 0 0 0  
   orientation 0 0 0 
:bonedata
  begin
     id 1 
     name lhipjoint
     direction 0.673618 -0.716094 0.182886 
     length 2.63917 
     axis 0 0 0  XYZ
  end
  begin
     id 2 
     name lfemur
     direction 0.34202 -0.939693 0  
     length 7.41015  
     axis 0 0 20  XYZ
    dof rx ry rz
    limits (-160.0 20.0)
           (-70.0 70.0)
           (-60.0 70.0)
  end
  begin
     id 3 
     name ltibia
     direction 0.34202 -0.939693 0   
     length 7.92551   
     axis 0 0 20   XYZ
    dof rx
    limits (-10.0 170.0)
  end
  begin
     id 4 
     name lfoot
     direction 0.0786834 -0.216181 0.973178   
     length 2.28657   
     axis -90 7.62852e-016 20   XYZ
    dof rx rz
    limits (-45.0 90.0)
           (-70.0 20.0)
  end
  begin
     id 5 
     name ltoes
     direction 1.53562e-011 -4.21928e-011 1   
     length 1.14687   
     axis -90 7.62852e-016 20   XYZ
    dof rx
    limits (-90.0 20.0)
  end
  begin
     id 6 
     name rhipjoint
     direction -0.630561 -0.752002 0.192056   
     length 2.51315  
     axis 0 0 0  XYZ 
  end
  begin
     id 7 
     name rfemur
     direction -0.34202 -0.939693 0   
     length 7.61317   
     axis 0 0 -20   XYZ
    dof rx ry rz
    limits (-160.0 20.0)
           (-70.0 70.0)
           (-70.0 60.0)
  end
  begin
     id 8 
     name rtibia
     direction -0.34202 -0.939693 0   
     length 7.99175   
     axis 0 0 -20   XYZ
    dof rx
    limits (-10.0 170.0)
 end
 begin
     id 9 
     name rfoot
     direction -0.109419 -0.300625 0.947445   
     length 2.34126  
     axis -90 -7.62852e-016 -20   XYZ
    dof rx rz
    limits (-45.0 90.0)
           (-20.0 70.0)
  end
  begin
     id 10 
     name rtoes
     direction -1.53603e-011 -4.21913e-011 1   
     length 1.16381   
     axis -90 -7.62852e-016 -20   XYZ
    dof rx
    limits (-90.0 20.0)
  end
  begin
     id 11 
     name lowerback
     direction 0.0168077 0.993836 -0.109583   
     length 2.02862   
     axis 0 0 0   XYZ
    dof rx ry rz
    limits (-20.0 45.0)
           (-30.0 30.0)
           (-30.0 30.0)
  end
  begin
     id 12 
     name upperback
     direction 0.0170634 0.999844 0.00461437   
     length 2.03044   
     axis 0 0 0   XYZ
    dof rx ry rz
    limits (-20.0 45.0)
           (-30.0 30.0)
           (-30.0 30.0)
  end
  begin
     id 13 
     name thorax
     direction 0.00813305 0.998421 0.0555897   
     length 2.05762   
     axis 0 0 0   XYZ
    dof rx ry rz
    limits (-20.0 45.0)
           (-30.0 30.0)
           (-30.0 30.0)
  end
  begin
     id 14 
     name lowerneck
     direction -0.00127547 0.992596 0.121455   
     length 1.7173   
     axis 0 0 0   XYZ
    dof rx ry rz
    limits (-20.0 45.0)
           (-30.0 30.0)
           (-30.0 30.0)
  end
  begin
     id 15 
     name upperneck
     direction 0.0144921 0.991716 -0.127628   
     length 1.73779   
     axis 0 0 0   XYZ
    dof rx ry rz
    limits (-20.0 45.0)
           (-30.0 30.0)
           (-30.0 30.0)
  end
  begin
     id 16
     name head
     direction 0.00161449 0.998411 -0.0563246  
     length 1.74399  
     axis 0 0 0   XYZ
    dof rx ry rz
    limits (-20.0 45.0)
           (-30.0 30.0)
           (-30.0 30.0)
  end
  begin
     id 17 
     name lclavicle
     direction 0.952642 0.284773 -0.106664  
     length 3.53079  
     axis 0 0 0   XYZ
    dof ry rz
    limits (-20.0 10.0)
           (0.0 20.0)
  end
  begin
     id 18 
     name lhumerus
     direction 1 -4.48971e-011 1.90155e-027   
     length 5.06507   
     axis 180 -30 -90   XYZ
    dof rx ry rz
    limits (-60.0 90.0)
           (-90.0 90.0)
           (-90.0 90.0)
  end
  begin
     id 19
     name lradius
     direction 1 -4.48978e-011 1.0994e-027   
     length 3.60196   
     axis 180 -30 -90   XYZ
    dof rx
    limits (-10.0 170.0)
  end
  begin
     id 20
     name lwrist
     direction 1 -4.48947e-011 2.56952e-028   
     length 1.80098   
     axis -5.12785e-016 90 90   XYZ
    dof ry
    limits (-180.0 0.0)
 end
  begin
     id 21 
     name lhand
     direction 1 -4.49009e-011 5.13905e-028   
     length 0.450346   
     axis -3.27915e-016 90 90   XYZ
    dof rx rz
    limits (-90.0 90.0)
           (-45.0 45.0)
  end
  begin
     id 22 
     name lfingers
     direction 1 -4.48975e-011 1.02781e-027   
     length 0.363081   
     axis -6.5583e-016 90 90   XYZ
    dof rx
    limits (0.0 90.0)
  end
  begin
     id 23
     name lthumb
     direction 0.707107 -6.34941e-011 0.707107   
     length 0.521313   
     axis -90 45 2.85299e-015   XYZ
    dof rx rz
    limits (-45.0 45.0)
           (-45.0 45.0)
  end
  begin
     id 24 
     name rclavicle
     direction -0.955889 0.219434 -0.195256   
     length 3.66318  
     axis 0 0 0   XYZ 
    dof ry rz
    limits (-10.0 20.0)
           (-20.0 0.0)
  end
  begin
     id 25 
     name rhumerus
     direction -1 -4.48973e-011 1.65154e-027  
     length 5.36394   
     axis 180 30 90   XYZ
    dof rx ry rz
    limits (-90.0 60.0)
           (-90.0 90.0)
           (-90.0 90.0)
  end
  begin
     id 26 
     name rradius
     direction -1 -4.4898e-011 3.26231e-028   
     length 3.58035   
     axis 180 30 90   XYZ
    dof rx
    limits (-10.0 170.0)
  end
  begin
     id 27 
     name rwrist
     direction -1 -4.4894e-011 2.56952e-028   
     length 1.79017   
     axis -5.12785e-016 -90 -90   XYZ
    dof ry
    limits (-180.0 0.0)
  end
  begin
     id 28
     name rhand
     direction -1 -4.48999e-011 5.13905e-028   
     length 0.663747   
     axis -3.27915e-016 -90 -90   XYZ
    dof rx rz
    limits (-90.0 90.0)
           (-45.0 45.0)
  end
  begin
     id 29
     name rfingers
     direction -1 -4.49025e-011 1.02781e-027   
     length 0.53513   
     axis -6.5583e-016 -90 -90   XYZ
    dof rx
    limits (0.0 90.0)
  end
  begin
     id 30
     name rthumb
     direction -0.707107 -6.34891e-011 0.707107   
     length 0.768342   
     axis -90 -45 -2.85299e-015   XYZ
    dof rx rz
    limits (-45.0 45.0)
           (-45.0 45.0)
  end
:hierarchy
  begin
    root lhipjoint rhipjoint lowerback
    lhipjoint lfemur
    lfemur ltibia
    ltibia lfoot
    lfoot ltoes
    rhipjoint rfemur
    rfemur rtibia
    rtibia rfoot
    rfoot rtoes
    lowerback upperback
    upperback thorax
    thorax lowerneck lclavicle rclavicle
    lowerneck upperneck
    upperneck head
    lclavicle lhumerus
    lhumerus lradius
    lradius lwrist
    lwrist lhand lthumb
    lhand lfingers
    rclavicle rhumerus
    rhumerus rradius
    rradius rwrist
    rwrist rhand rthumb
    rhand rfingers
  end

#!OML:ASF F:\VICON\USERDATA\INSTALL\rory3\rory3.ASF
:FULLY-SPECIFIED
:DEGREES
1
root 4.40047 17.8934 -21.0986 -0.943965 -8.37963 -7.42612
lowerback 11.505 1.60479 4.40928
upperback 0.47251 2.84449 2.26157
thorax -5.8636 1.30424 -0.569129
lowerneck -15.9456 -3.55911 -2.36067
upperneck 19.9076 -4.57025 1.03589
head 8.94923 -2.21289 0.178777
rclavicle -3.22404e-015 1.78906e-014
rhumerus -22.1457 -10.4191 -82.5993
rradius 31.043
rwrist -1.10026
rhand -18.32 23.6535
rfingers 7.12502
rthumb 7.96145 -6.17659
lclavicle -3.22404e-015 1.78906e-014
lhumerus -35.9023 4.66766 83.7329
lradius 27.8853
lwrist 5.29873
lhand -24.5852 29.6298
lfingers 7.12502
lthumb 1.91219 59.6009
rfemur 3.63674 10.1003 34.5122
rtibia 25.6934
rfoot -20.9622 -4.01225
rtoes 5.06152
lfemur -27.9936 -4.46438 -9.04925
ltibia 22.5608
lfoot -6.36063 8.24507
ltoes 1.09177
2
root 4.40608 17.8851 -20.9321 -0.860525 -8.41227 -7.49779
lowerback 11.5237 1.73996 4.55916
upperback 0.624381 3.03031 2.15768
thorax -5.69248 1.39536 -0.789019
lowerneck -16.5176 -3.69326 -2.05874
upperneck 19.9238 -4.79918 0.939606
head 9.05223 -2.30292 0.0569264
rclavicle 9.44227e-016 2.98177e-016
rhumerus -21.5835 -10.9531 -82.6743
rradius 31.1425
rwrist -1.1522
rhand -18.5021 23.9584
rfingers 7.12502
rthumb 7.7857 -5.87821
lclavicle 9.44227e-016 2.98177e-016
lhumerus -35.568 3.80356 84.1264
lradius 27.4498
lwrist 6.74363
lhand -25.817 28.8394
lfingers 7.12502
lthumb 0.722513 58.818
rfemur 4.23471 10.0703 34.59
rtibia 25.5254
rfoot -21.1373 -3.99742
rtoes 4.99101
lfemur -27.9127 -4.63207 -8.81247
ltibia 20.7497
lfoot -7.44146 8.14138
ltoes -0.844945
3
root 4.41071 17.8697 -20.7586 -0.784388 -8.36188 -7.34678
lowerback 11.4468 1.77598 4.30956
upperback 0.676527 3.03941 2.17156
thorax -5.60729 1.40906 -0.632728
lowerneck -16.7728 -3.6547 -2.13544
upperneck 20.0794 -4.71985 0.929058
head 9.15312 -2.26996 0.069604
rclavicle -1.47225e-014 2.93207e-014
rhumerus -21.3044 -10.9576 -82.6093
rradius 31.3856
rwrist -1.20171
rhand -18.6828 23.8448
rfingers 7.12502
rthumb 7.61135 -5.99825
lclavicle -1.47225e-014 2.93207e-014
lhumerus -35.6037 3.51235 84.4545
lradius 27.335
lwrist 7.15239
lhand -26.2526 30.2984
lfingers 7.12502
lthumb 0.301763 60.2779
rfemur 4.74914 10.0933 34.4755
rtibia 25.6181
rfoot -21.3277 -4.28199
rtoes 4.07058
lfemur -27.8634 -5.07559 -8.76267
ltibia 19.0863
lfoot -7.68837 8.13695
ltoes -2.41576
4
root 4.42149 17.8465 -20.581 -0.879291 -8.39221 -7.28305
lowerback 11.4536 1.74548 4.18532
upperback 0.779656 2.98238 2.24193
thorax -5.5145 1.38793 -0.479213
lowerneck -16.6923 -3.55455 -2.22985
upperneck 19.9563 -4.54596 0.891103
head 9.09459 -2.20123 0.0972151
rclavicle -9.82742e-015 -3.93594e-014
rhumerus -21.1482 -10.5212 -82.5924
rradius 31.6855
rwrist -1.41718
rhand -18.4682 24.0118
rfingers 7.12502
rthumb 7.8185 -5.8236
lclavicle -9.82742e-015 -3.93594e-014
lhumerus -35.7948 3.57798 84.6348
lradius 27.3109
lwrist 6.82763
lhand -26.0891 29.7796
lfingers 7.12502
lthumb 0.459724 59.7588
rfemur 5.46773 10.0842 34.4349
rtibia 25.6311
rfoot -21.3011 -4.34821
rtoes 3.11814
lfemur -27.6797 -5.68577 -8.61024
ltibia 17.6848
lfoot -7.23499 8.39775
ltoes -0.912797
5
root 4.43348 17.8319 -20.4018 -1.03868 -8.59655 -7.38483
lowerback 11.6785 1.81323 4.33958
upperback 0.828878 3.10461 2.26651
thorax -5.57728 1.44313 -0.566119
lowerneck -16.4796 -3.60384 -2.1637
upperneck 19.7408 -4.59941 0.745688
head 8.97693 -2.23956 0.0362549
rclavicle 3.66509e-015 -1.45113e-014
rhumerus -21.041 -10.385 -82.5505
rradius 31.781
rwrist -1.61336
rhand -17.9026 24.7125
rfingers 7.12502
rthumb 8.36433 -5.10189
lclavicle 3.66509e-015 -1.45113e-014
lhumerus -35.983 3.45081 84.7055
lradius 27.2424
lwrist 6.23318
lhand -26.3977 27.6734
lfingers 7.12502
lthumb 0.161615 57.6531
rfemur 6.18887 10.1811 34.559
rtibia 25.8138
rfoot -21.2059 -4.35569
rtoes 2.17714
lfemur -27.2247 -5.87922 -8.40911
ltibia 16.4442
lfoot -6.39599 8.3441
ltoes 1.25146
6
root 4.44403 17.8268 -20.2222 -0.897557 -8.72749 -7.58166
lowerback 11.6816 1.85956 4.60669
upperback 0.748043 3.20457 2.25719
thorax -5.64579 1.4829 -0.742319
lowerneck -16.2467 -3.65325 -2.12484
upperneck 19.5948 -4.68547 0.765679
head 8.8852 -2.27701 0.0317835
rclavicle -4.25772e-014 -1.33186e-014
rhumerus -20.9963 -10.361 -82.5708
rradius 31.8485
rwrist -1.80639
rhand -17.7741 24.796
rfingers 7.12502
rthumb 8.48836 -5.01339
lclavicle -4.25772e-014 -1.33186e-014
lhumerus -36.0939 3.30067 84.6543
lradius 27.2304
lwrist 5.35433
lhand -26.0042 28.4242
lfingers 7.12502
lthumb 0.541728 58.4032
rfemur 6.44773 10.2995 34.7149
rtibia 26.3018
rfoot -21.2781 -4.21299
rtoes 2.32091
lfemur -26.7596 -5.4829 -8.30734
ltibia 14.9974
lfoot -6.07368 7.69144
ltoes 2.80171
7
root 4.45563 17.8065 -20.0446 -0.730711 -8.6407 -7.51267
lowerback 11.6261 1.93402 4.6837
upperback 0.93476 3.29019 2.09477
thorax -5.39931 1.52919 -0.962409
lowerneck -17.2617 -3.77464 -1.96968
upperneck 19.8332 -4.91558 0.935051
head 9.15558 -2.34516 0.0123838
rclavicle -3.01159e-014 3.18055e-015
rhumerus -20.3525 -10.8801 -82.7179
rradius 31.8575
rwrist -1.71389
rhand -18.3058 24.5896
rfingers 7.12502
rthumb 7.97519 -5.23992
lclavicle -3.01159e-014 3.18055e-015
lhumerus -35.3991 2.73928 84.8101
lradius 26.7182
lwrist 6.05693
lhand -26.4864 28.2832
lfingers 7.12502
lthumb 0.0759545 58.2629
rfemur 6.56687 10.3535 34.6086
rtibia 26.8639
rfoot -21.2102 -4.31636
rtoes 2.03877
lfemur -26.607 -5.54055 -8.43014
ltibia 13.8986
lfoot -6.03472 7.41505
ltoes 2.00572
8
root 4.47282 17.7596 -19.8522 -0.648989 -8.63029 -7.34218
lowerback 11.5408 2.08385 4.7244
upperback 1.28699 3.45723 1.86178
thorax -4.95465 1.6234 -1.2417
lowerneck -19.052 -3.89501 -1.5763
upperneck 20.4164 -5.16847 0.910601
head 9.67759 -2.41573 -0.136615
rclavicle -7.20594e-016 5.36719e-015
rhumerus -19.5208 -11.6149 -82.9052
rradius 31.913
rwrist -1.60695
rhand -18.5227 24.4903
rfingers 7.12502
rthumb 7.76583 -5.34713
lclavicle -7.20594e-016 5.36719e-015
lhumerus -34.4361 1.94617 84.9916
lradius 26.4172
lwrist 6.62529
lhand -26.1801 31.9377
lfingers 7.12502
lthumb 0.371763 61.9171
rfemur 6.83947 10.2537 34.3161
rtibia 27.3684
rfoot -21.1421 -4.02054
rtoes 2.27727
lfemur -26.9666 -6.18329 -8.45909
ltibia 13.7038
lfoot -5.60216 7.88015
ltoes -4.22133
9
root 4.48792 17.7512 -19.6641 -0.720349 -8.58456 -7.27655
lowerback 11.5761 1.85812 4.44701
upperback 0.489607 3.18531 2.19849
thorax -5.86627 1.46946 -0.712671
lowerneck -15.5639 -3.66482 -2.3348
upperneck 19.6555 -4.69201 0.881522
head 8.79084 -2.28801 0.116845
rclavicle 3.18677e-015 -2.18663e-014
rhumerus -21.2949 -10.1422 -82.3848
rradius 32.1211
rwrist -1.88563
rhand -18.5765 24.3788
rfingers 7.12502
rthumb 7.71389 -5.46047
lclavicle 3.18677e-015 -2.18663e-014
lhumerus -36.7032 2.85248 85.04
lradius 26.673
lwrist 6.08407
lhand -26.3562 32.6093
lfingers 7.12502
lthumb 0.201755 62.5889
rfemur 7.22842 10.1141 34.1726
rtibia 27.9765
rfoot -20.9826 -3.7062
rtoes 1.86269
lfemur -26.7475 -6.35447 -8.63852
ltibia 13.8877
lfoot -5.72749 7.8027
ltoes -1.5277
10
root 4.49691 17.7783 -19.4816 -0.746831 -8.40655 -7.43589
lowerback 11.432 1.8272 4.68885
upperback 0.759957 3.15202 2.19913
thorax -5.48803 1.45862 -0.83067
lowerneck -15.9792 -3.6972 -2.21183
upperneck 19.5743 -4.74243 0.823132
head 8.8344 -2.3058 0.0636948
rclavicle 5.07522e-014 1.96797e-014
rhumerus -20.6393 -10.5955 -82.4193
rradius 31.8609
rwrist -1.45527
rhand -18.6485 24.394
rfingers 7.12502
rthumb 7.64442 -5.44779
lclavicle 5.07522e-014 1.96797e-014
lhumerus -36.117 2.95544 84.9262
lradius 26.2407
lwrist 4.81162
lhand -27.095 27.8532
lfingers 7.12502
lthumb -0.511866 57.8323
rfemur 7.74541 10.0279 34.3538
rtibia 28.2492
rfoot -20.4315 -3.53178
rtoes -0.0543371
lfemur -26.6935 -5.51831 -9.02742
ltibia 14.8971
lfoot -6.44843 6.62134
ltoes 3.2955
11
root 4.51536 17.7589 -19.2803 -0.927942 -8.41868 -7.47441
lowerback 11.4004 1.79671 4.7841
upperback 0.856818 3.11954 2.25438
thorax -5.36768 1.44493 -0.817842
lowerneck -15.8678 -3.60108 -2.33013
upperneck 19.6699 -4.59231 0.862429
head 8.84868 -2.2404 0.116097
rclavicle 2.60905e-016 4.03533e-014
rhumerus -20.4113 -10.6322 -82.3345
rradius 31.5744
rwrist -1.19431
rhand -18.8012 24.0824
rfingers 7.12502
rthumb 7.49705 -5.76479
lclavicle 2.60905e-016 4.03533e-014
lhumerus -36.086 3.21626 84.8916
lradius 25.9052
lwrist 3.954
lhand -27.2622 26.1691
lfingers 7.12502
lthumb -0.673307 56.1478
rfemur 8.39712 10.0457 34.3818
rtibia 28.7464
rfoot -19.9687 -3.21381
rtoes -1.09919
lfemur -26.9003 -5.05811 -9.41168
ltibia 16.499
lfoot -7.14262 6.26723
ltoes 5.16178
12
root 4.58768 17.7946 -18.9138 -1.33752 -11.5453 -7.09279
lowerback 9.81452 2.82899 5.29668
upperback 1.54478 4.38472 1.9277
thorax -3.63812 2.11282 -1.51401
lowerneck -16.365 -3.63354 -2.2507
upperneck 20.0963 -4.65401 0.864248
head 9.08486 -2.25788 0.0824255
rclavicle -9.82742e-015 1.87852e-014
rhumerus -20.2415 -10.9897 -82.2749
rradius 31.3373
rwrist -0.884229
rhand -18.7212 23.9795
rfingers 7.12502
rthumb 7.57425 -5.86487
lclavicle -9.82742e-015 1.87852e-014
lhumerus -36.0516 3.34852 84.7546
lradius 25.6426
lwrist 4.02383
lhand -27.5064 23.9636
lfingers 7.12502
lthumb -0.909194 53.9414
rfemur 9.86954 11.6563 33.2476
rtibia 29.2431
rfoot -19.7882 -1.23278
rtoes -1.17698
lfemur -25.3719 -5.56719 -9.47534
ltibia 18.2332
lfoot -8.56041 10.3661
ltoes 5.42919
13
root 4.54474 17.7593 -18.8686 -0.854503 -8.55527 -7.32645
lowerback 11.0256 1.94468 4.74453
upperback 0.972583 3.27432 2.1532
thorax -5.02508 1.53101 -0.906959
lowerneck -16.6957 -3.7195 -2.16545
upperneck 20.3555 -4.78748 0.83946
head 9.23429 -2.31273 0.0338805
rclavicle -2.40592e-014 6.75868e-015
rhumerus -20.3605 -11.3431 -82.1832
rradius 31.4052
rwrist -0.593835
rhand -18.4257 23.9764
rfingers 7.12502
rthumb 7.85951 -5.85754
lclavicle -2.40592e-014 6.75868e-015
lhumerus -35.9249 3.73114 84.4333
lradius 25.4999
lwrist 2.82925
lhand -26.1667 24.6035
lfingers 7.12502
lthumb 0.38475 54.5829
rfemur 8.77741 9.70309 33.8876
rtibia 30.2413
rfoot -18.7761 -2.078
rtoes -1.16596
lfemur -27.1792 -3.91125 -10.4347
ltibia 19.3613
lfoot -8.5936 6.20227
ltoes 5.56157
14
root 4.55745 17.7455 -18.6586 -1.04465 -8.51921 -7.32518
lowerback 11.0584 1.95769 4.73478
upperback 0.92787 3.29664 2.1824
thorax -5.09181 1.5404 -0.876668
lowerneck -16.4532 -3.69839 -2.23849
upperneck 20.6122 -4.77669 0.952704
head 9.28394 -2.30145 0.0880058
rclavicle 3.70858e-014 3.18055e-015
rhumerus -20.8714 -11.4276 -81.9837
rradius 31.5218
rwrist -0.536096
rhand -18.196 24.1788
rfingers 7.12502
rthumb 8.08116 -5.64666
lclavicle 3.70858e-014 3.18055e-015
lhumerus -36.3541 3.45335 84.6313
lradius 25.275
lwrist 3.91979
lhand -27.1428 24.9435
lfingers 7.12502
lthumb -0.557974 54.9225
rfemur 9.11499 9.37197 33.7905
rtibia 31.1566
rfoot -18.0111 -1.68961
rtoes -1.35839
lfemur -26.8171 -3.72853 -10.7972
ltibia 20.3616
lfoot -8.14778 6.23105
ltoes 5.63657
15
root 4.57569 17.7337 -18.4386 -1.26644 -8.40473 -7.3323
lowerback 11.0204 1.95574 4.81844
upperback 1.01645 3.29735 2.18674
thorax -4.97281 1.54297 -0.915267
lowerneck -16.4802 -3.7479 -2.12165
upperneck 20.6736 -4.86468 0.898413
head 9.30696 -2.33883 0.0377453
rclavicle -2.33324e-014 5.06901e-015
rhumerus -20.9316 -11.7665 -81.8098
rradius 31.3045
rwrist -0.279286
rhand -18.1468 24.3593
rfingers 7.12502
rthumb 8.12862 -5.46437
lclavicle -2.33324e-014 5.06901e-015
lhumerus -36.4418 3.40136 84.6659
lradius 25.2054
lwrist 4.0194
lhand -26.7431 26.5425
lfingers 7.12502
lthumb -0.171921 56.5222
rfemur 9.31953 8.81715 33.6129
rtibia 32.3579
rfoot -17.3279 -1.21474
rtoes -2.03774
lfemur -26.2867 -3.56542 -11.2272
ltibia 20.9893
lfoot -7.43174 5.69507
ltoes 2.70766
